<svg width="28" height="28" viewBox="0 0 28 28" fill="none" xmlns="http://www.w3.org/2000/svg">
<g clip-path="url(#clip0_901_748)">
<path d="M16.114 0.711663C15.9756 0.599225 15.7933 0.556241 15.6193 0.595014L0.452668 4.09501C0.185738 4.15637 -0.00260536 4.39514 -3.50473e-05 4.66901V24.5024C7.43277e-05 24.7902 0.210129 25.035 0.494613 25.0787L15.6613 27.4121C15.9797 27.461 16.2775 27.2426 16.3265 26.9242C16.331 26.8949 16.3333 26.8654 16.3333 26.8358V1.16901C16.3338 0.991116 16.253 0.822733 16.114 0.711663Z" fill="#4CAF50"/>
<path d="M27.4167 25.0856H15.75C15.4278 25.0856 15.1666 24.8244 15.1666 24.5022C15.1666 24.1801 15.4278 23.9189 15.75 23.9189H26.8333V4.08559H15.75C15.4278 4.08559 15.1666 3.82441 15.1666 3.50224C15.1666 3.18008 15.4278 2.91895 15.75 2.91895H27.4166C27.7388 2.91895 28 3.18013 28 3.5023V24.5023C28 24.8245 27.7388 25.0856 27.4167 25.0856Z" fill="#4CAF50"/>
<path d="M11.0834 19.2534C10.8822 19.2534 10.6953 19.1497 10.5887 18.9792L4.75538 9.64588C4.57606 9.37824 4.6477 9.01588 4.91534 8.83656C5.18298 8.65724 5.54534 8.72888 5.72466 8.99652C5.73172 9.00702 5.73839 9.01774 5.74473 9.02867L11.5781 18.362C11.7482 18.6356 11.6643 18.9953 11.3907 19.1654C11.2984 19.2228 11.192 19.2532 11.0834 19.2534Z" fill="#FAFAFA"/>
<path d="M5.25 19.2524C4.92783 19.2517 4.66719 18.99 4.66785 18.6679C4.66807 18.5589 4.6988 18.4522 4.7565 18.3599L10.5898 9.02652C10.7514 8.74778 11.1083 8.65278 11.387 8.81433C11.6658 8.97588 11.7608 9.33282 11.5992 9.61151C11.5929 9.62245 11.5862 9.63317 11.5791 9.64367L5.74585 18.977C5.63932 19.1483 5.45179 19.2525 5.25 19.2524Z" fill="#FAFAFA"/>
<path d="M20.4167 25.0856C20.0945 25.0856 19.8333 24.8245 19.8333 24.5023V3.5023C19.8333 3.18013 20.0945 2.91895 20.4167 2.91895C20.7388 2.91895 21 3.18013 21 3.5023V24.5023C21 24.8245 20.7388 25.0856 20.4167 25.0856Z" fill="#4CAF50"/>
<path d="M27.4167 21.5856H15.75C15.4278 21.5856 15.1666 21.3245 15.1666 21.0023C15.1666 20.6801 15.4278 20.4189 15.75 20.4189H27.4166C27.7388 20.4189 28 20.6801 28 21.0023C28 21.3245 27.7388 21.5856 27.4167 21.5856Z" fill="#4CAF50"/>
<path d="M27.4167 18.0856H15.75C15.4278 18.0856 15.1666 17.8245 15.1666 17.5023C15.1666 17.1801 15.4278 16.9189 15.75 16.9189H27.4166C27.7388 16.9189 28 17.1801 28 17.5023C28 17.8245 27.7388 18.0856 27.4167 18.0856Z" fill="#4CAF50"/>
<path d="M27.4167 14.5856H15.75C15.4278 14.5856 15.1666 14.3245 15.1666 14.0023C15.1666 13.6801 15.4278 13.4189 15.75 13.4189H27.4166C27.7388 13.4189 28 13.6801 28 14.0023C28 14.3245 27.7388 14.5856 27.4167 14.5856Z" fill="#4CAF50"/>
<path d="M27.4167 11.0856H15.75C15.4278 11.0856 15.1666 10.8245 15.1666 10.5023C15.1666 10.1801 15.4278 9.91895 15.75 9.91895H27.4166C27.7388 9.91895 28 10.1801 28 10.5023C28 10.8245 27.7388 11.0856 27.4167 11.0856Z" fill="#4CAF50"/>
<path d="M27.4167 7.58564H15.75C15.4278 7.58564 15.1666 7.32446 15.1666 7.00229C15.1666 6.68013 15.4278 6.41895 15.75 6.41895H27.4166C27.7388 6.41895 28 6.68013 28 7.00229C28 7.32451 27.7388 7.58564 27.4167 7.58564Z" fill="#4CAF50"/>
</g>
<defs>
<clipPath id="clip0_901_748">
<rect width="28" height="28" fill="white"/>
</clipPath>
</defs>
</svg>
