<svg width="27" height="23" viewBox="0 0 27 23" fill="none" xmlns="http://www.w3.org/2000/svg">
<path d="M17.3666 6.84172C16.941 6.41589 16.4356 6.0781 15.8794 5.84763C15.3232 5.61716 14.727 5.49854 14.125 5.49854C13.5229 5.49854 12.9267 5.61716 12.3705 5.84763C11.8143 6.0781 11.3089 6.41589 10.8833 6.84172L9.99997 7.72506L9.11663 6.84172C8.25689 5.98198 7.09083 5.49898 5.87497 5.49898C4.65911 5.49898 3.49304 5.98198 2.6333 6.84172C1.77356 7.70147 1.29056 8.86753 1.29056 10.0834C1.29056 11.2993 1.77356 12.4653 2.6333 13.3251L3.51663 14.2084L9.99997 20.6917L16.4833 14.2084L17.3666 13.3251C17.7925 12.8994 18.1303 12.3941 18.3607 11.8379C18.5912 11.2816 18.7098 10.6855 18.7098 10.0834C18.7098 9.48132 18.5912 8.88514 18.3607 8.32893C18.1303 7.77271 17.7925 7.26735 17.3666 6.84172V6.84172Z" stroke="#A0A4A8" stroke-width="2" stroke-linecap="round" stroke-linejoin="round"/>
<circle cx="19" cy="8" r="7.5" fill="#E93C3C" stroke="#F2F2F2"/>
<path d="M21.5797 8.136C21.5797 8.63733 21.525 9.072 21.4157 9.44C21.309 9.80533 21.1624 10.108 20.9757 10.348C20.789 10.588 20.5677 10.7667 20.3117 10.884C20.0584 11.0013 19.7864 11.06 19.4957 11.06C19.2024 11.06 18.929 11.0013 18.6757 10.884C18.425 10.7667 18.2064 10.588 18.0197 10.348C17.833 10.108 17.6864 9.80533 17.5797 9.44C17.473 9.072 17.4197 8.63733 17.4197 8.136C17.4197 7.63467 17.473 7.2 17.5797 6.832C17.6864 6.464 17.833 6.16 18.0197 5.92C18.2064 5.67733 18.425 5.49733 18.6757 5.38C18.929 5.26267 19.2024 5.204 19.4957 5.204C19.7864 5.204 20.0584 5.26267 20.3117 5.38C20.5677 5.49733 20.789 5.67733 20.9757 5.92C21.1624 6.16 21.309 6.464 21.4157 6.832C21.525 7.2 21.5797 7.63467 21.5797 8.136ZM20.8397 8.136C20.8397 7.69867 20.8024 7.332 20.7277 7.036C20.6557 6.73733 20.557 6.49733 20.4317 6.316C20.309 6.13467 20.1664 6.00533 20.0037 5.928C19.841 5.848 19.6717 5.808 19.4957 5.808C19.3197 5.808 19.1504 5.848 18.9877 5.928C18.825 6.00533 18.6824 6.13467 18.5597 6.316C18.437 6.49733 18.3384 6.73733 18.2637 7.036C18.1917 7.332 18.1557 7.69867 18.1557 8.136C18.1557 8.57333 18.1917 8.94 18.2637 9.236C18.3384 9.532 18.437 9.77067 18.5597 9.952C18.6824 10.1333 18.825 10.264 18.9877 10.344C19.1504 10.4213 19.3197 10.46 19.4957 10.46C19.6717 10.46 19.841 10.4213 20.0037 10.344C20.1664 10.264 20.309 10.1333 20.4317 9.952C20.557 9.77067 20.6557 9.532 20.7277 9.236C20.8024 8.94 20.8397 8.57333 20.8397 8.136Z" fill="white"/>
</svg>
