<svg width="24" height="24" viewBox="0 0 24 24" fill="none" xmlns="http://www.w3.org/2000/svg">
<g clip-path="url(#clip0_901_764)">
<path d="M1.49997 1.59994C-0.400029 3.59994 -2.94596e-05 5.59994 -2.94596e-05 11.9999C-2.94596e-05 17.1999 -1.00003 22.4999 3.89997 23.6999C5.39997 24.0999 18.6 24.0999 20.1 23.6999C22.1 23.1999 23.8 21.6999 24 18.6999V5.29994C23.7 2.29994 21.9 0.599938 19.4 0.299938C19 -6.17765e-05 18.8 -6.17839e-05 16 -6.17839e-05C5.69997 -6.17839e-05 3.49997 -0.400062 1.49997 1.59994Z" fill="url(#paint0_linear_901_764)"/>
<path d="M12 3.10003C8.39998 3.10003 4.99998 2.80003 3.59998 6.20003C3.09998 7.60003 3.09998 9.40003 3.09998 12C3.09998 14.3 3.09998 16.4 3.59998 17.8C4.89998 21.2 8.39998 20.8 12 20.8C15.5 20.8 19 21.2 20.4 17.8C20.9 16.4 20.9 14.6 20.9 12C20.9 8.50003 21 6.30003 19.4 4.60003C17.7 2.90003 15.4 3.10003 12 3.10003ZM11.2 4.70003C18.8 4.70003 19.7 3.90003 19.2 15.6C19 19.7 15.9 19.3 12 19.3C4.99998 19.3 4.69998 19.1 4.69998 12C4.69998 4.90003 5.29998 4.70003 11.2 4.70003ZM16.7 6.20003C16.4215 6.20003 16.1544 6.31065 15.9575 6.50757C15.7606 6.70448 15.65 6.97155 15.65 7.25003C15.65 7.52851 15.7606 7.79558 15.9575 7.99249C16.1544 8.1894 16.4215 8.30003 16.7 8.30003C16.9652 8.30003 17.2195 8.19467 17.4071 8.00714C17.5946 7.8196 17.7 7.56525 17.7 7.30003C17.7 7.03481 17.5946 6.78046 17.4071 6.59292C17.2195 6.40539 16.9652 6.30003 16.7 6.30003V6.20003ZM12 7.40003C11.3959 7.40003 10.7977 7.51901 10.2396 7.75018C9.68153 7.98136 9.17443 8.32019 8.74728 8.74734C8.32014 9.17449 7.9813 9.68159 7.75013 10.2397C7.51896 10.7978 7.39998 11.3959 7.39998 12C7.39998 12.6041 7.51896 13.2023 7.75013 13.7604C7.9813 14.3185 8.32014 14.8256 8.74728 15.2527C9.17443 15.6799 9.68153 16.0187 10.2396 16.2499C10.7977 16.481 11.3959 16.6 12 16.6C13.22 16.6 14.39 16.1154 15.2527 15.2527C16.1153 14.3901 16.6 13.22 16.6 12C16.6 10.78 16.1153 9.61001 15.2527 8.74734C14.39 7.88467 13.22 7.40003 12 7.40003ZM12 9.00003C15.9 9.00003 16 15 12 15C7.99998 15 7.99998 9.00003 12 9.00003Z" fill="white"/>
</g>
<defs>
<linearGradient id="paint0_linear_901_764" x1="1.55877" y1="22.5321" x2="23.7798" y2="3.3219" gradientUnits="userSpaceOnUse">
<stop stop-color="#FFDD55"/>
<stop offset="0.5" stop-color="#FF543E"/>
<stop offset="1" stop-color="#C837AB"/>
</linearGradient>
<clipPath id="clip0_901_764">
<rect width="24" height="24" fill="white"/>
</clipPath>
</defs>
</svg>
