<svg width="27" height="23" viewBox="0 0 27 23" fill="none" xmlns="http://www.w3.org/2000/svg">
<g clip-path="url(#clip0_901_528)">
<path d="M7.50002 21.3332C7.96026 21.3332 8.33335 20.9601 8.33335 20.4998C8.33335 20.0396 7.96026 19.6665 7.50002 19.6665C7.03978 19.6665 6.66669 20.0396 6.66669 20.4998C6.66669 20.9601 7.03978 21.3332 7.50002 21.3332Z" stroke="#A0A4A8" stroke-width="2" stroke-linecap="round" stroke-linejoin="round"/>
<path d="M16.6666 21.3332C17.1269 21.3332 17.5 20.9601 17.5 20.4998C17.5 20.0396 17.1269 19.6665 16.6666 19.6665C16.2064 19.6665 15.8333 20.0396 15.8333 20.4998C15.8333 20.9601 16.2064 21.3332 16.6666 21.3332Z" stroke="#A0A4A8" stroke-width="2" stroke-linecap="round" stroke-linejoin="round"/>
<path d="M0.833313 3.8335H4.16665L6.39998 14.9918C6.47618 15.3755 6.6849 15.7201 6.9896 15.9654C7.2943 16.2107 7.67556 16.341 8.06665 16.3335H16.1666C16.5577 16.341 16.939 16.2107 17.2437 15.9654C17.5484 15.7201 17.7571 15.3755 17.8333 14.9918L19.1666 8.00016H4.99998" stroke="#A0A4A8" stroke-width="2" stroke-linecap="round" stroke-linejoin="round"/>
<circle cx="19" cy="8" r="7.5" fill="#E93C3C" stroke="#F2F2F2"/>
<path d="M21.5797 8.136C21.5797 8.63733 21.525 9.072 21.4157 9.44C21.309 9.80533 21.1624 10.108 20.9757 10.348C20.789 10.588 20.5677 10.7667 20.3117 10.884C20.0584 11.0013 19.7864 11.06 19.4957 11.06C19.2024 11.06 18.929 11.0013 18.6757 10.884C18.425 10.7667 18.2064 10.588 18.0197 10.348C17.833 10.108 17.6864 9.80533 17.5797 9.44C17.473 9.072 17.4197 8.63733 17.4197 8.136C17.4197 7.63467 17.473 7.2 17.5797 6.832C17.6864 6.464 17.833 6.16 18.0197 5.92C18.2064 5.67733 18.425 5.49733 18.6757 5.38C18.929 5.26267 19.2024 5.204 19.4957 5.204C19.7864 5.204 20.0584 5.26267 20.3117 5.38C20.5677 5.49733 20.789 5.67733 20.9757 5.92C21.1624 6.16 21.309 6.464 21.4157 6.832C21.525 7.2 21.5797 7.63467 21.5797 8.136ZM20.8397 8.136C20.8397 7.69867 20.8024 7.332 20.7277 7.036C20.6557 6.73733 20.557 6.49733 20.4317 6.316C20.309 6.13467 20.1664 6.00533 20.0037 5.928C19.841 5.848 19.6717 5.808 19.4957 5.808C19.3197 5.808 19.1504 5.848 18.9877 5.928C18.825 6.00533 18.6824 6.13467 18.5597 6.316C18.437 6.49733 18.3384 6.73733 18.2637 7.036C18.1917 7.332 18.1557 7.69867 18.1557 8.136C18.1557 8.57333 18.1917 8.94 18.2637 9.236C18.3384 9.532 18.437 9.77067 18.5597 9.952C18.6824 10.1333 18.825 10.264 18.9877 10.344C19.1504 10.4213 19.3197 10.46 19.4957 10.46C19.6717 10.46 19.841 10.4213 20.0037 10.344C20.1664 10.264 20.309 10.1333 20.4317 9.952C20.557 9.77067 20.6557 9.532 20.7277 9.236C20.8024 8.94 20.8397 8.57333 20.8397 8.136Z" fill="white"/>
</g>
<defs>
<clipPath id="clip0_901_528">
<rect width="27" height="23" fill="white"/>
</clipPath>
</defs>
</svg>
